# xmcd
#
# Track frame offsets:
#	150
#	15712
#	34745
#	53132
#	63200
#	84440
#	99545
#	107840
#	120697
#	137687
#	150072
#
# Disc length: 2065 seconds
#
# Revision: 0
# Processed by: cddbd v1.4PL0 Copyright (c) Steve Scherf et al.
# Submitted via: dBpowerAMP V4.0
#
DISCID=7f080f0b
DTITLE=Envoys - overcomers
DYEAR=1900
DGENRE=Country
TTITLE0=overcomer
TTITLE1=few Good men
TTITLE2=heart mender
TTITLE3=new wine
TTITLE4=statue of liberty
TTITLE5=dream on
TTITLE6=gettin ready today
TTITLE7=perfect praise
TTITLE8=my redeemer lives
TTITLE9=they cant take that away from me
TTITLE10=Overcomer Reprise
EXTD=
EXTT0=
EXTT1=
EXTT2=
EXTT3=
EXTT4=
EXTT5=
EXTT6=
EXTT7=
EXTT8=
EXTT9=
EXTT10=
PLAYORDER=
